HIERARCHY
ROOT Hips
{
	OFFSET 0.000000 0.000000 0.000000
	CHANNELS 6 Xposition Yposition Zposition Xrotation Yrotation Zrotation
	JOINT LeftUpLeg_virtual
	{
		OFFSET 0.000000 0.000000 0.000000
		CHANNELS 3 Xrotation Yrotation Zrotation
		JOINT LeftUpLeg
		{
			OFFSET 11.394100 -6.187798 -0.413800
			CHANNELS 3 Xrotation Yrotation Zrotation
			JOINT LeftLeg
			{
				OFFSET 0.430247 -32.302673 3.732800
				CHANNELS 3 Xrotation Yrotation Zrotation
				JOINT LeftFoot
				{
					OFFSET -0.430247 -48.264931 -6.423300
					CHANNELS 3 Xrotation Yrotation Zrotation
					JOINT LeftToeBase
					{
						OFFSET 4.230900 -16.068199 23.438400
						CHANNELS 3 Xrotation Yrotation Zrotation
						JOINT LeftToe_End
						{
							OFFSET 4.510700 0.695400 19.974600
							CHANNELS 3 Xrotation Yrotation Zrotation
							End Site
							{
								OFFSET 0 0 0
							}
						}
					}
				}
			}
		}
	}
	JOINT RightUpLeg_virtual
	{
		OFFSET 0.000000 0.000000 0.000000
		CHANNELS 3 Xrotation Yrotation Zrotation
		JOINT RightUpLeg
		{
			OFFSET -11.333700 -6.187798 -0.413800
			CHANNELS 3 Xrotation Yrotation Zrotation
			JOINT RightLeg
			{
				OFFSET -0.430392 -32.302628 3.733000
				CHANNELS 3 Xrotation Yrotation Zrotation
				JOINT RightFoot
				{
					OFFSET 0.430392 -48.264973 -6.423500
					CHANNELS 3 Xrotation Yrotation Zrotation
					JOINT RightToeBase
					{
						OFFSET -4.230900 -16.068199 23.438400
						CHANNELS 3 Xrotation Yrotation Zrotation
						JOINT RightToe_End
						{
							OFFSET -4.510700 0.695400 19.974600
							CHANNELS 3 Xrotation Yrotation Zrotation
							End Site
							{
								OFFSET 0 0 0
							}
						}
					}
				}
			}
		}
	}
	JOINT Spine_virtual
	{
		OFFSET 0.000000 0.000000 0.000000
		CHANNELS 3 Xrotation Yrotation Zrotation
		JOINT Spine
		{
			OFFSET -0.002400 12.777504 0.315300
			CHANNELS 3 Xrotation Yrotation Zrotation
			JOINT Spine1
			{
				OFFSET -0.002067 5.816869 0.032633
				CHANNELS 3 Xrotation Yrotation Zrotation
				JOINT Spine1_split
				{
					OFFSET -0.002067 5.816869 0.032633
					CHANNELS 3 Xrotation Yrotation Zrotation
					JOINT Spine2
					{
						OFFSET -0.002067 5.816869 0.032633
						CHANNELS 3 Xrotation Yrotation Zrotation
						JOINT Neck_virtual
						{
							OFFSET 0.000000 0.000000 0.000000
							CHANNELS 3 Xrotation Yrotation Zrotation
							JOINT Neck
							{
								OFFSET -0.003700 21.199493 -0.826900
								CHANNELS 3 Xrotation Yrotation Zrotation
								JOINT Head
								{
									OFFSET 0.000000 20.442200 4.834800
									CHANNELS 3 Xrotation Yrotation Zrotation
									JOINT HeadTop_End
									{
										OFFSET 0.000000 34.668396 4.968400
										CHANNELS 3 Xrotation Yrotation Zrotation
										End Site
										{
											OFFSET 0 0 0
										}
									}
								}
							}
						}
						JOINT LeftShoulder_virtual
						{
							OFFSET 0.000000 0.000000 0.000000
							CHANNELS 3 Xrotation Yrotation Zrotation
							JOINT LeftShoulder
							{
								OFFSET 3.288150 8.794197 -1.372250
								CHANNELS 3 Xrotation Yrotation Zrotation
								JOINT LeftShoulder_split
								{
									OFFSET 3.288150 8.794197 -1.372250
									CHANNELS 3 Xrotation Yrotation Zrotation
									JOINT LeftArm
									{
										OFFSET 11.953299 -2.279007 -0.146200
										CHANNELS 3 Xrotation Yrotation Zrotation
										JOINT LeftForeArm
										{
											OFFSET 18.448900 0.000000 0.000000
											CHANNELS 3 Xrotation Yrotation Zrotation
											JOINT LeftHand
											{
												OFFSET 29.527798 0.000000 0.000000
												CHANNELS 3 Xrotation Yrotation Zrotation
												End Site
												{
													OFFSET 0 0 0
												}
											}
										}
									}
								}
							}
						}
						JOINT RightShoulder_virtual
						{
							OFFSET 0.000000 0.000000 0.000000
							CHANNELS 3 Xrotation Yrotation Zrotation
							JOINT RightShoulder
							{
								OFFSET -3.249400 8.794197 -1.372250
								CHANNELS 3 Xrotation Yrotation Zrotation
								JOINT RightShoulder_split
								{
									OFFSET -3.249400 8.794197 -1.372250
									CHANNELS 3 Xrotation Yrotation Zrotation
									JOINT RightArm
									{
										OFFSET -11.953299 -2.279007 -0.146200
										CHANNELS 3 Xrotation Yrotation Zrotation
										JOINT RightForeArm
										{
											OFFSET -18.448900 0.000000 0.000000
											CHANNELS 3 Xrotation Yrotation Zrotation
											JOINT RightHand
											{
												OFFSET -29.527802 0.000000 0.000000
												CHANNELS 3 Xrotation Yrotation Zrotation
												End Site
												{
													OFFSET 0 0 0
												}
											}
										}
									}
								}
							}
						}
					}
				}
			}
		}
	}
}
MOTION
Frames: 6
Frame Time: 0.03333333
2.524058 90.977692 0.442760 0.000000 0.000000 0.000000 8.285098 -67.664116 10.057902 -39.169018 10.433047 21.805017 34.872023 -6.408571 1.394829 -1.127650 -3.118752 -13.470021 1.214533 0.222040 1.052338 0.000000 0.000000 0.000000 5.914738 -66.544764 8.460467 -29.745587 -11.482896 -26.461107 26.438592 -4.082090 -3.318386 0.695383 -2.383599 22.415103 -3.113797 -0.365911 -1.752354 0.000000 0.000000 0.000000 2.455433 -64.418246 5.511084 16.652843 0.462241 -3.856841 4.578865 0.842804 -2.639184 0.415686 2.467670 0.461159 0.000000 0.000000 0.000000 4.122020 0.585960 -2.619859 -4.811366 2.905713 2.965148 -15.415353 52.331058 -3.551527 0.000000 0.000000 0.000000 4.692504 0.207929 -2.727185 2.635032 -3.192107 -11.093830 -3.140883 -5.855659 1.504025 -38.187485 28.458287 -33.186697 3.187557 -42.993042 4.480873 0.000000 0.000000 0.000000 5.286800 0.684163 -2.366811 1.742210 5.791239 9.497530 4.303895 4.794393 0.494037 4.502903 -9.675814 55.278599 -20.527490 35.170358 13.508348 0.000000 0.000000 0.000000 
2.051741 91.521217 2.205006 0.000000 0.000000 0.000000 7.666727 -68.009785 9.391589 -39.225694 11.269850 21.965077 35.377197 -6.285430 1.574412 -1.025569 -2.778443 -13.821012 0.783258 0.106662 1.503469 0.000000 0.000000 0.000000 7.126903 -67.516365 9.117797 -29.224986 -10.912649 -26.099922 27.171273 -4.316021 -3.234636 1.977845 -2.652610 21.807257 -3.304860 -0.733390 -0.918695 0.000000 0.000000 0.000000 3.601039 -64.901072 6.090392 16.479464 0.307192 -3.778466 4.519930 0.701860 -2.571386 0.272562 2.504497 0.427543 0.000000 0.000000 0.000000 3.823012 0.502683 -2.582017 -5.045655 3.059137 2.514489 -14.566922 52.282257 -4.172401 0.000000 0.000000 0.000000 4.590753 0.062151 -2.692551 2.670415 -3.670548 -10.799471 -3.385207 -5.787391 1.709306 -39.087766 28.623870 -32.573292 3.105236 -43.967922 4.606047 0.000000 0.000000 0.000000 5.229550 0.645029 -2.327399 1.733802 6.331027 9.843539 3.736528 4.050492 0.133552 3.338232 -9.797622 54.705085 -20.028778 33.745861 12.992750 0.000000 0.000000 0.000000 
1.510072 92.038750 4.512676 0.000000 0.000000 0.000000 7.372613 -68.637903 8.926709 -38.842319 12.316730 21.921919 36.213236 -5.879210 1.591449 -1.882084 -1.996167 -13.253985 -0.034641 0.005875 1.992049 0.000000 0.000000 0.000000 8.523221 -68.567053 9.900500 -29.086726 -9.360171 -25.505726 29.060420 -4.580936 -2.939037 2.803387 -3.573642 21.039704 -4.165955 -1.061518 0.104835 0.000000 0.000000 0.000000 5.134472 -65.453696 6.943435 16.174112 0.130828 -3.614214 4.248872 0.325125 -2.417160 0.260359 2.461411 0.316485 0.000000 0.000000 0.000000 3.335395 0.131143 -2.401379 -5.093456 3.674570 1.963563 -13.646362 52.339425 -4.922246 0.000000 0.000000 0.000000 4.266246 -0.346542 -2.534876 2.694569 -4.162790 -10.652506 -3.531912 -5.347488 1.791876 -40.519298 28.502484 -31.585015 4.396831 -43.804933 5.707630 0.000000 0.000000 0.000000 4.894966 0.322808 -2.173305 1.809215 6.951595 10.210288 3.207319 3.412192 -0.089605 1.183832 -9.803645 53.800519 -18.956890 30.761874 11.871768 0.000000 0.000000 0.000000 
0.941825 92.193329 6.983181 0.000000 0.000000 0.000000 7.554037 -69.330293 8.813952 -38.436613 13.323844 21.732431 37.606352 -5.322309 1.489193 -3.680606 -1.000993 -11.833103 -0.698607 -0.062437 2.275604 0.000000 0.000000 0.000000 10.162241 -69.400213 10.919824 -29.671301 -7.146474 -24.675453 31.230582 -4.685111 -2.514807 2.644859 -4.769700 20.268778 -4.935115 -1.220858 0.883861 0.000000 0.000000 0.000000 6.715862 -65.863869 7.858827 15.828159 -0.083303 -3.390544 3.829493 -0.242296 -2.193619 0.332338 2.261240 0.270117 0.000000 0.000000 0.000000 2.772637 -0.469741 -2.114001 -4.938050 4.639247 1.385490 -12.903724 52.381738 -5.558650 0.000000 0.000000 0.000000 3.787808 -0.955375 -2.280819 2.712617 -4.630646 -10.667825 -3.712312 -4.665327 1.837333 -42.071469 27.974348 -30.573740 6.672268 -42.473572 7.479831 0.000000 0.000000 0.000000 4.378436 -0.247251 -1.946206 1.978592 7.498608 10.575996 2.870249 3.046144 -0.199397 -1.388957 -9.425041 52.973619 -17.698972 27.403525 10.587539 0.000000 0.000000 0.000000 
0.450580 91.822990 9.121181 0.000000 0.000000 0.000000 8.435027 -69.775334 9.289819 -38.637086 14.069275 21.523304 39.728157 -4.878565 1.367649 -6.127461 -0.144880 -9.977829 -0.923404 -0.088289 2.275891 0.000000 0.000000 0.000000 11.926528 -69.682532 12.062657 -31.205348 -4.806627 -23.629722 33.438000 -4.603264 -2.016180 1.132993 -5.905880 19.498300 -4.650294 -1.091450 1.118290 0.000000 0.000000 0.000000 8.504389 -66.117119 8.935710 15.472781 -0.332383 -3.117957 3.358928 -0.914225 -1.944142 0.403610 1.770861 0.307439 0.000000 0.000000 0.000000 2.247291 -1.195784 -1.791376 -4.691054 5.808010 0.797900 -12.709280 52.189441 -5.772113 0.000000 0.000000 0.000000 3.269357 -1.655587 -1.990791 2.721944 -5.039072 -10.715317 -3.890258 -4.017999 1.794423 -43.476603 26.803517 -29.771360 9.361912 -40.449982 9.516386 0.000000 0.000000 0.000000 3.796054 -0.971846 -1.701316 2.220395 7.825544 10.902597 2.641510 2.878141 -0.281443 -3.715607 -8.638672 52.544218 -16.488171 24.709835 9.398859 0.000000 0.000000 0.000000 
0.016740 90.661858 10.902943 0.000000 0.000000 0.000000 10.197156 -69.808645 10.531556 -39.867958 14.308403 21.416767 42.841583 -4.873121 1.381226 -8.744621 0.284431 -8.299809 -0.934111 -0.082551 2.221672 0.000000 0.000000 0.000000 13.644330 -69.469287 13.261697 -33.796971 -2.882799 -22.499161 35.818646 -4.286781 -1.444405 -1.689420 -6.802088 18.835900 -3.024100 -0.732373 0.760978 0.000000 0.000000 0.000000 10.375882 -65.943687 10.105156 15.055584 -0.585996 -2.851511 2.937185 -1.583285 -1.729302 0.433458 1.195194 0.369005 0.000000 0.000000 0.000000 1.873207 -1.916174 -1.508711 -4.507902 7.036163 0.193495 -13.388339 51.617106 -5.308305 0.000000 0.000000 0.000000 2.835703 -2.321752 -1.726921 2.739468 -5.389241 -10.680863 -3.948587 -3.441332 1.579419 -44.669741 24.967666 -29.172739 11.992541 -38.231574 11.495118 0.000000 0.000000 0.000000 3.260212 -1.721326 -1.511669 2.514659 7.807053 11.128980 2.594026 2.748474 -0.281316 -5.314604 -7.546574 52.699530 -15.413075 23.222980 8.382112 0.000000 0.000000 0.000000 
